<mxfile host="app.diagrams.net" modified="2023-03-16T20:21:44.408Z" agent="5.0 (Macintosh; Intel Mac OS X 10_15_7) AppleWebKit/537.36 (KHTML, like Gecko) Chrome/110.0.0.0 Safari/537.36" etag="T4oqz1G_nMyBsjy7OnHb" version="21.0.6" type="github">
  <diagram name="Page-1" id="JyzD6iUcr9XkHCg-oid8">
    <mxGraphModel dx="1180" dy="707" grid="1" gridSize="10" guides="1" tooltips="1" connect="1" arrows="1" fold="1" page="1" pageScale="1" pageWidth="850" pageHeight="1100" math="0" shadow="0">
      <root>
        <mxCell id="0" />
        <mxCell id="1" parent="0" />
        <mxCell id="rnJiiy-tTPaVu0qWVX1Y-5" value="" style="edgeStyle=orthogonalEdgeStyle;rounded=0;orthogonalLoop=1;jettySize=auto;html=1;" edge="1" parent="1" source="rnJiiy-tTPaVu0qWVX1Y-2" target="rnJiiy-tTPaVu0qWVX1Y-4">
          <mxGeometry relative="1" as="geometry" />
        </mxCell>
        <mxCell id="rnJiiy-tTPaVu0qWVX1Y-2" value="CronJob&lt;br&gt;" style="shape=image;html=1;verticalAlign=top;verticalLabelPosition=bottom;labelBackgroundColor=#ffffff;imageAspect=0;aspect=fixed;image=https://cdn1.iconfinder.com/data/icons/Futurosoft%20Icons%200.5.2/128x128/mimetypes/Schedule_File.png" vertex="1" parent="1">
          <mxGeometry x="90" y="250" width="128" height="128" as="geometry" />
        </mxCell>
        <mxCell id="rnJiiy-tTPaVu0qWVX1Y-7" style="edgeStyle=orthogonalEdgeStyle;rounded=0;orthogonalLoop=1;jettySize=auto;html=1;" edge="1" parent="1" source="rnJiiy-tTPaVu0qWVX1Y-4" target="rnJiiy-tTPaVu0qWVX1Y-16">
          <mxGeometry relative="1" as="geometry" />
        </mxCell>
        <mxCell id="rnJiiy-tTPaVu0qWVX1Y-4" value="Lines Trigger Worker" style="whiteSpace=wrap;html=1;verticalAlign=top;labelBackgroundColor=#ffffff;" vertex="1" parent="1">
          <mxGeometry x="302" y="284" width="120" height="60" as="geometry" />
        </mxCell>
        <mxCell id="rnJiiy-tTPaVu0qWVX1Y-12" style="edgeStyle=orthogonalEdgeStyle;rounded=0;orthogonalLoop=1;jettySize=auto;html=1;" edge="1" parent="1" source="rnJiiy-tTPaVu0qWVX1Y-6" target="rnJiiy-tTPaVu0qWVX1Y-11">
          <mxGeometry relative="1" as="geometry" />
        </mxCell>
        <mxCell id="rnJiiy-tTPaVu0qWVX1Y-6" value="Rules Orchestrator / Lines trigger SQS" style="outlineConnect=0;dashed=0;verticalLabelPosition=bottom;verticalAlign=top;align=center;html=1;shape=mxgraph.aws3.sns;fillColor=#D9A741;gradientColor=none;" vertex="1" parent="1">
          <mxGeometry x="620.5" y="276.5" width="76.5" height="75" as="geometry" />
        </mxCell>
        <mxCell id="rnJiiy-tTPaVu0qWVX1Y-40" style="edgeStyle=orthogonalEdgeStyle;rounded=0;orthogonalLoop=1;jettySize=auto;html=1;" edge="1" parent="1" source="rnJiiy-tTPaVu0qWVX1Y-11" target="rnJiiy-tTPaVu0qWVX1Y-41">
          <mxGeometry relative="1" as="geometry">
            <mxPoint x="490" y="480" as="targetPoint" />
            <Array as="points" />
          </mxGeometry>
        </mxCell>
        <mxCell id="rnJiiy-tTPaVu0qWVX1Y-11" value="Rules / Worker&lt;br&gt;Per metric" style="rounded=0;whiteSpace=wrap;html=1;" vertex="1" parent="1">
          <mxGeometry x="598" y="450" width="120" height="60" as="geometry" />
        </mxCell>
        <mxCell id="rnJiiy-tTPaVu0qWVX1Y-14" value="" style="outlineConnect=0;dashed=0;verticalLabelPosition=bottom;verticalAlign=top;align=center;html=1;shape=mxgraph.aws3.dynamo_db;fillColor=#2E73B8;gradientColor=none;" vertex="1" parent="1">
          <mxGeometry x="660" y="87" width="72" height="81" as="geometry" />
        </mxCell>
        <mxCell id="rnJiiy-tTPaVu0qWVX1Y-15" value="" style="sketch=0;points=[[0,0,0],[0.25,0,0],[0.5,0,0],[0.75,0,0],[1,0,0],[0,1,0],[0.25,1,0],[0.5,1,0],[0.75,1,0],[1,1,0],[0,0.25,0],[0,0.5,0],[0,0.75,0],[1,0.25,0],[1,0.5,0],[1,0.75,0]];outlineConnect=0;fontColor=#232F3E;gradientColor=#4D72F3;gradientDirection=north;fillColor=#3334B9;strokeColor=#ffffff;dashed=0;verticalLabelPosition=bottom;verticalAlign=top;align=center;html=1;fontSize=12;fontStyle=0;aspect=fixed;shape=mxgraph.aws4.resourceIcon;resIcon=mxgraph.aws4.documentdb_with_mongodb_compatibility;" vertex="1" parent="1">
          <mxGeometry x="410" y="90" width="78" height="78" as="geometry" />
        </mxCell>
        <mxCell id="rnJiiy-tTPaVu0qWVX1Y-17" style="edgeStyle=orthogonalEdgeStyle;rounded=0;orthogonalLoop=1;jettySize=auto;html=1;entryX=0;entryY=0.48;entryDx=0;entryDy=0;entryPerimeter=0;" edge="1" parent="1" source="rnJiiy-tTPaVu0qWVX1Y-16" target="rnJiiy-tTPaVu0qWVX1Y-6">
          <mxGeometry relative="1" as="geometry" />
        </mxCell>
        <mxCell id="rnJiiy-tTPaVu0qWVX1Y-16" value="SNS" style="outlineConnect=0;dashed=0;verticalLabelPosition=bottom;verticalAlign=top;align=center;html=1;shape=mxgraph.aws3.sns;fillColor=#D9A741;gradientColor=none;" vertex="1" parent="1">
          <mxGeometry x="470" y="275" width="76.5" height="76.5" as="geometry" />
        </mxCell>
        <mxCell id="rnJiiy-tTPaVu0qWVX1Y-21" value="" style="outlineConnect=0;dashed=0;verticalLabelPosition=bottom;verticalAlign=top;align=center;html=1;shape=mxgraph.aws3.rds;fillColor=#2E73B8;gradientColor=none;" vertex="1" parent="1">
          <mxGeometry x="538.25" y="87" width="72" height="81" as="geometry" />
        </mxCell>
        <mxCell id="rnJiiy-tTPaVu0qWVX1Y-22" value="" style="edgeStyle=orthogonalEdgeStyle;rounded=0;orthogonalLoop=1;jettySize=auto;html=1;" edge="1" parent="1" source="rnJiiy-tTPaVu0qWVX1Y-23" target="rnJiiy-tTPaVu0qWVX1Y-25">
          <mxGeometry relative="1" as="geometry" />
        </mxCell>
        <mxCell id="rnJiiy-tTPaVu0qWVX1Y-23" value="CronJob&lt;br&gt;" style="shape=image;html=1;verticalAlign=top;verticalLabelPosition=bottom;labelBackgroundColor=#ffffff;imageAspect=0;aspect=fixed;image=https://cdn1.iconfinder.com/data/icons/Futurosoft%20Icons%200.5.2/128x128/mimetypes/Schedule_File.png" vertex="1" parent="1">
          <mxGeometry x="90" y="550" width="128" height="128" as="geometry" />
        </mxCell>
        <mxCell id="rnJiiy-tTPaVu0qWVX1Y-24" style="edgeStyle=orthogonalEdgeStyle;rounded=0;orthogonalLoop=1;jettySize=auto;html=1;" edge="1" parent="1" source="rnJiiy-tTPaVu0qWVX1Y-25" target="rnJiiy-tTPaVu0qWVX1Y-30">
          <mxGeometry relative="1" as="geometry" />
        </mxCell>
        <mxCell id="rnJiiy-tTPaVu0qWVX1Y-25" value="Application Trigger Worker" style="whiteSpace=wrap;html=1;verticalAlign=top;labelBackgroundColor=#ffffff;" vertex="1" parent="1">
          <mxGeometry x="302" y="584" width="120" height="60" as="geometry" />
        </mxCell>
        <mxCell id="rnJiiy-tTPaVu0qWVX1Y-26" style="edgeStyle=orthogonalEdgeStyle;rounded=0;orthogonalLoop=1;jettySize=auto;html=1;" edge="1" parent="1" source="rnJiiy-tTPaVu0qWVX1Y-27" target="rnJiiy-tTPaVu0qWVX1Y-28">
          <mxGeometry relative="1" as="geometry" />
        </mxCell>
        <mxCell id="rnJiiy-tTPaVu0qWVX1Y-27" value="Rules Orchestrator / Lines trigger SQS" style="outlineConnect=0;dashed=0;verticalLabelPosition=bottom;verticalAlign=top;align=center;html=1;shape=mxgraph.aws3.sns;fillColor=#D9A741;gradientColor=none;" vertex="1" parent="1">
          <mxGeometry x="620.5" y="576.5" width="76.5" height="75" as="geometry" />
        </mxCell>
        <mxCell id="rnJiiy-tTPaVu0qWVX1Y-49" style="edgeStyle=orthogonalEdgeStyle;rounded=0;orthogonalLoop=1;jettySize=auto;html=1;" edge="1" parent="1" source="rnJiiy-tTPaVu0qWVX1Y-28" target="rnJiiy-tTPaVu0qWVX1Y-41">
          <mxGeometry relative="1" as="geometry" />
        </mxCell>
        <mxCell id="rnJiiy-tTPaVu0qWVX1Y-28" value="Rules / Worker&lt;br&gt;Per metric" style="rounded=0;whiteSpace=wrap;html=1;" vertex="1" parent="1">
          <mxGeometry x="598" y="750" width="120" height="60" as="geometry" />
        </mxCell>
        <mxCell id="rnJiiy-tTPaVu0qWVX1Y-29" style="edgeStyle=orthogonalEdgeStyle;rounded=0;orthogonalLoop=1;jettySize=auto;html=1;entryX=0;entryY=0.48;entryDx=0;entryDy=0;entryPerimeter=0;" edge="1" parent="1" source="rnJiiy-tTPaVu0qWVX1Y-30" target="rnJiiy-tTPaVu0qWVX1Y-27">
          <mxGeometry relative="1" as="geometry" />
        </mxCell>
        <mxCell id="rnJiiy-tTPaVu0qWVX1Y-30" value="SNS" style="outlineConnect=0;dashed=0;verticalLabelPosition=bottom;verticalAlign=top;align=center;html=1;shape=mxgraph.aws3.sns;fillColor=#D9A741;gradientColor=none;" vertex="1" parent="1">
          <mxGeometry x="470" y="575" width="76.5" height="76.5" as="geometry" />
        </mxCell>
        <mxCell id="rnJiiy-tTPaVu0qWVX1Y-31" value="" style="edgeStyle=orthogonalEdgeStyle;rounded=0;orthogonalLoop=1;jettySize=auto;html=1;" edge="1" parent="1" source="rnJiiy-tTPaVu0qWVX1Y-32" target="rnJiiy-tTPaVu0qWVX1Y-34">
          <mxGeometry relative="1" as="geometry" />
        </mxCell>
        <mxCell id="rnJiiy-tTPaVu0qWVX1Y-32" value="CronJob&lt;br&gt;" style="shape=image;html=1;verticalAlign=top;verticalLabelPosition=bottom;labelBackgroundColor=#ffffff;imageAspect=0;aspect=fixed;image=https://cdn1.iconfinder.com/data/icons/Futurosoft%20Icons%200.5.2/128x128/mimetypes/Schedule_File.png" vertex="1" parent="1">
          <mxGeometry x="90" y="830" width="128" height="128" as="geometry" />
        </mxCell>
        <mxCell id="rnJiiy-tTPaVu0qWVX1Y-33" style="edgeStyle=orthogonalEdgeStyle;rounded=0;orthogonalLoop=1;jettySize=auto;html=1;" edge="1" parent="1" source="rnJiiy-tTPaVu0qWVX1Y-34" target="rnJiiy-tTPaVu0qWVX1Y-39">
          <mxGeometry relative="1" as="geometry" />
        </mxCell>
        <mxCell id="rnJiiy-tTPaVu0qWVX1Y-34" value="Company Trigger Worker" style="whiteSpace=wrap;html=1;verticalAlign=top;labelBackgroundColor=#ffffff;" vertex="1" parent="1">
          <mxGeometry x="302" y="864" width="120" height="60" as="geometry" />
        </mxCell>
        <mxCell id="rnJiiy-tTPaVu0qWVX1Y-35" style="edgeStyle=orthogonalEdgeStyle;rounded=0;orthogonalLoop=1;jettySize=auto;html=1;" edge="1" parent="1" source="rnJiiy-tTPaVu0qWVX1Y-36" target="rnJiiy-tTPaVu0qWVX1Y-37">
          <mxGeometry relative="1" as="geometry" />
        </mxCell>
        <mxCell id="rnJiiy-tTPaVu0qWVX1Y-36" value="Rules Orchestrator / Lines trigger SQS" style="outlineConnect=0;dashed=0;verticalLabelPosition=bottom;verticalAlign=top;align=center;html=1;shape=mxgraph.aws3.sns;fillColor=#D9A741;gradientColor=none;" vertex="1" parent="1">
          <mxGeometry x="620.5" y="856.5" width="76.5" height="75" as="geometry" />
        </mxCell>
        <mxCell id="rnJiiy-tTPaVu0qWVX1Y-50" style="edgeStyle=orthogonalEdgeStyle;rounded=0;orthogonalLoop=1;jettySize=auto;html=1;" edge="1" parent="1" source="rnJiiy-tTPaVu0qWVX1Y-37" target="rnJiiy-tTPaVu0qWVX1Y-41">
          <mxGeometry relative="1" as="geometry" />
        </mxCell>
        <mxCell id="rnJiiy-tTPaVu0qWVX1Y-37" value="Rules / Worker&lt;br&gt;Per metric" style="rounded=0;whiteSpace=wrap;html=1;" vertex="1" parent="1">
          <mxGeometry x="598" y="1030" width="120" height="60" as="geometry" />
        </mxCell>
        <mxCell id="rnJiiy-tTPaVu0qWVX1Y-38" style="edgeStyle=orthogonalEdgeStyle;rounded=0;orthogonalLoop=1;jettySize=auto;html=1;entryX=0;entryY=0.48;entryDx=0;entryDy=0;entryPerimeter=0;" edge="1" parent="1" source="rnJiiy-tTPaVu0qWVX1Y-39" target="rnJiiy-tTPaVu0qWVX1Y-36">
          <mxGeometry relative="1" as="geometry" />
        </mxCell>
        <mxCell id="rnJiiy-tTPaVu0qWVX1Y-39" value="SNS" style="outlineConnect=0;dashed=0;verticalLabelPosition=bottom;verticalAlign=top;align=center;html=1;shape=mxgraph.aws3.sns;fillColor=#D9A741;gradientColor=none;" vertex="1" parent="1">
          <mxGeometry x="470" y="855" width="76.5" height="76.5" as="geometry" />
        </mxCell>
        <mxCell id="rnJiiy-tTPaVu0qWVX1Y-47" style="edgeStyle=orthogonalEdgeStyle;rounded=0;orthogonalLoop=1;jettySize=auto;html=1;" edge="1" parent="1" source="rnJiiy-tTPaVu0qWVX1Y-41" target="rnJiiy-tTPaVu0qWVX1Y-45">
          <mxGeometry relative="1" as="geometry" />
        </mxCell>
        <mxCell id="rnJiiy-tTPaVu0qWVX1Y-41" value="Write SQS" style="outlineConnect=0;dashed=0;verticalLabelPosition=bottom;verticalAlign=top;align=center;html=1;shape=mxgraph.aws3.sns;fillColor=#D9A741;gradientColor=none;" vertex="1" parent="1">
          <mxGeometry x="1040" y="742.5" width="76.5" height="75" as="geometry" />
        </mxCell>
        <mxCell id="rnJiiy-tTPaVu0qWVX1Y-43" value="" style="outlineConnect=0;dashed=0;verticalLabelPosition=bottom;verticalAlign=top;align=center;html=1;shape=mxgraph.aws3.rds;fillColor=#2E73B8;gradientColor=none;" vertex="1" parent="1">
          <mxGeometry x="1370" y="739.5" width="72" height="81" as="geometry" />
        </mxCell>
        <mxCell id="rnJiiy-tTPaVu0qWVX1Y-48" style="edgeStyle=orthogonalEdgeStyle;rounded=0;orthogonalLoop=1;jettySize=auto;html=1;exitX=1;exitY=0.5;exitDx=0;exitDy=0;" edge="1" parent="1" source="rnJiiy-tTPaVu0qWVX1Y-45" target="rnJiiy-tTPaVu0qWVX1Y-43">
          <mxGeometry relative="1" as="geometry" />
        </mxCell>
        <mxCell id="rnJiiy-tTPaVu0qWVX1Y-45" value="Lines Trigger Worker" style="whiteSpace=wrap;html=1;verticalAlign=top;labelBackgroundColor=#ffffff;" vertex="1" parent="1">
          <mxGeometry x="1170" y="750" width="120" height="60" as="geometry" />
        </mxCell>
      </root>
    </mxGraphModel>
  </diagram>
</mxfile>
